<svg width="24" height="24" viewBox="0 0 24 24" fill="none" xmlns="http://www.w3.org/2000/svg">
<path d="M22 13V15C22 20 20 22 15 22H9C4 22 2 20 2 15V13.48M11 2H9C4 2 2 4 2 9" stroke="#FFA724" stroke-width="1.5" stroke-linecap="round" stroke-linejoin="round"/>
<path d="M19.93 9.011L20.98 7.961C22.34 6.601 22.98 5.021 20.98 3.021C18.98 1.021 17.4 1.661 16.04 3.021L8.16 10.901C7.86 11.201 7.56 11.791 7.5 12.221L7.07 15.231C6.91 16.321 7.68 17.081 8.77 16.931L11.78 16.501C12.2 16.441 12.79 16.141 13.1 15.841L16.28 12.661L17.01 11.931" stroke="#FFA724" stroke-width="1.5" stroke-miterlimit="10" stroke-linecap="round" stroke-linejoin="round"/>
<path d="M14.91 4.148C15.2416 5.32547 15.87 6.39807 16.735 7.26305C17.6 8.12803 18.6726 8.75641 19.85 9.088" stroke="#FFA724" stroke-width="1.5" stroke-miterlimit="10" stroke-linecap="round" stroke-linejoin="round"/>
</svg>
