<svg width="26" height="26" viewBox="0 0 26 26" fill="none" xmlns="http://www.w3.org/2000/svg">
<path d="M17.1311 23.2073C16.8514 23.2073 16.5831 23.0961 16.3852 22.8983C16.1874 22.7005 16.0763 22.4322 16.0763 22.1524V19.4097C16.109 19.0942 16.0753 18.7754 15.9772 18.4737C15.879 18.1721 15.7187 17.8944 15.5066 17.6586C15.3753 17.5162 15.2857 17.3403 15.2478 17.1504C15.2098 16.9604 15.2248 16.7636 15.2913 16.5816C15.3578 16.3996 15.4731 16.2395 15.6246 16.1187C15.7761 15.9979 15.9579 15.9212 16.1501 15.897C18.724 15.5911 21.0975 14.7683 21.0975 10.3061C21.0983 9.47286 20.8524 8.658 20.3907 7.9643C19.9647 7.32571 19.8092 6.5443 19.9582 5.79126C20.0533 5.30002 20.0533 4.79511 19.9582 4.30388C19.1683 4.57095 18.4246 4.95883 17.7535 5.4537C17.6266 5.5438 17.4814 5.60471 17.3282 5.63207C17.175 5.65942 17.0176 5.65255 16.8674 5.61193C14.9637 5.074 12.9482 5.074 11.0445 5.61193C10.8943 5.65255 10.7369 5.65942 10.5837 5.63207C10.4305 5.60471 10.2853 5.5438 10.1584 5.4537C9.48322 4.95309 8.73161 4.56482 7.93262 4.30388C7.8323 4.7946 7.8323 5.30054 7.93262 5.79126C8.0709 6.55378 7.90832 7.34021 7.47902 7.9854C7.01937 8.68396 6.77373 9.50155 6.77226 10.3378C6.77226 14.4412 8.75542 15.5383 11.7302 15.9181C11.9248 15.9422 12.1089 16.0202 12.2617 16.1432C12.4145 16.2661 12.53 16.4293 12.5952 16.6143C12.6565 16.7938 12.6683 16.9865 12.6293 17.1722C12.5903 17.3578 12.502 17.5295 12.3736 17.6692C12.1685 17.8885 12.011 18.1479 11.9111 18.4312C11.8113 18.7144 11.7712 19.0153 11.7935 19.3148V22.1524C11.7935 22.4322 11.6823 22.7005 11.4845 22.8983C11.2867 23.0961 11.0184 23.2073 10.7386 23.2073C10.4588 23.2073 10.1905 23.0961 9.99268 22.8983C9.79485 22.7005 9.68371 22.4322 9.68371 22.1524V21.5511C8.64715 21.6703 7.5972 21.5314 6.6273 21.1468C5.65739 20.7621 4.79763 20.1437 4.12452 19.3464C3.77852 18.9629 3.3634 18.648 2.90086 18.4181C2.76649 18.3835 2.64025 18.3227 2.52936 18.2393C2.41847 18.1559 2.32509 18.0515 2.25457 17.932C2.18404 17.8124 2.13774 17.6802 2.11832 17.5428C2.09889 17.4054 2.10672 17.2655 2.14135 17.1312C2.17598 16.9968 2.23674 16.8706 2.32016 16.7597C2.40358 16.6488 2.50802 16.5554 2.62752 16.4849C2.74703 16.4144 2.87925 16.3681 3.01665 16.3486C3.15405 16.3292 3.29393 16.337 3.4283 16.3717C4.23976 16.6673 4.96483 17.1603 5.53805 17.8063C6.59293 18.8612 7.6478 19.7895 9.65207 19.4097C9.61683 18.8433 9.69944 18.2758 9.89469 17.743C7.72164 17.1945 4.62031 15.6333 4.62031 10.3589C4.61753 9.10951 4.98457 7.88727 5.67518 6.84613C5.80346 6.65394 5.85259 6.41964 5.81232 6.19211C5.59916 5.05345 5.72006 3.87743 6.16043 2.80596C6.22026 2.66309 6.31083 2.53515 6.42568 2.43123C6.54054 2.32731 6.67688 2.24996 6.825 2.20468C7.18366 2.09919 8.47061 1.88821 10.9074 3.47053C12.88 2.99584 14.937 2.99584 16.9096 3.47053C19.3464 1.88821 20.6333 2.08864 20.9814 2.20468C21.1296 2.24996 21.2659 2.32731 21.3808 2.43123C21.4956 2.53515 21.5862 2.66309 21.646 2.80596C22.0873 3.88091 22.2082 5.06055 21.9941 6.20266C21.9725 6.30556 21.9717 6.41174 21.9916 6.51498C22.0115 6.61822 22.0518 6.71645 22.1102 6.80394C22.8028 7.84806 23.1699 9.07427 23.165 10.3272C23.165 15.6754 20.0848 17.2261 17.8907 17.7114C18.0839 18.2774 18.1628 18.8762 18.1227 19.473V22.1524C18.1232 22.4215 18.0208 22.6807 17.8365 22.8768C17.6521 23.0729 17.3998 23.1911 17.1311 23.2073Z" fill="#231F20"/>
</svg>
