<svg width="27" height="27" viewBox="0 0 27 27" fill="none" xmlns="http://www.w3.org/2000/svg">
<path d="M13.1585 24.124H12.687C9.92903 23.9661 7.32812 22.7892 5.38901 20.8217C3.44989 18.8542 2.31089 16.2365 2.19305 13.4766C2.13718 11.6161 2.55578 9.77212 3.40943 8.11817C4.26308 6.46422 5.52368 5.05478 7.07251 4.0226C8.62133 2.99041 10.4074 2.36945 12.2625 2.21821C14.1176 2.06697 15.9807 2.39042 17.6762 3.15809C17.873 3.2507 18.0491 3.3819 18.1941 3.54389C18.3392 3.70589 18.4502 3.89538 18.5206 4.10112C18.5899 4.30943 18.6159 4.52971 18.5971 4.74843C18.5782 4.96716 18.5149 5.17973 18.4109 5.37311L16.9964 7.98288C16.8093 8.32868 16.5 8.59226 16.1288 8.72205C15.7577 8.85184 15.3515 8.83851 14.9897 8.68467C14.0777 8.32627 13.0797 8.24751 12.1228 8.45842C11.1659 8.66933 10.2935 9.16036 9.61665 9.86894C9.16343 10.3586 8.81645 10.9368 8.59754 11.5671C8.37864 12.1974 8.29254 12.8662 8.34466 13.5314C8.41001 14.1743 8.605 14.7972 8.91786 15.3626C9.23071 15.928 9.65495 16.4242 10.1649 16.821C10.6871 17.2526 11.2922 17.5726 11.9429 17.7612C12.5935 17.9498 13.276 18.003 13.948 17.9176C14.5202 17.8407 15.0708 17.6485 15.5665 17.3526C16.0622 17.0566 16.4927 16.6632 16.8319 16.196H13.6519C13.2321 16.196 12.8294 16.03 12.5315 15.7342C12.2336 15.4384 12.0648 15.0368 12.0619 14.617V11.6782C12.0619 11.2565 12.2295 10.8521 12.5276 10.5539C12.8258 10.2558 13.2302 10.0882 13.6519 10.0882H22.5339C22.9528 10.0911 23.354 10.258 23.6512 10.5532C23.9485 10.8484 24.1182 11.2484 24.1239 11.6673V13.7288C23.9777 16.537 22.7582 19.1818 20.7174 21.1164C18.6766 23.0511 15.9705 24.1278 13.1585 24.124ZM13.1585 4.38622C11.984 4.38569 10.8214 4.62101 9.73953 5.07823C8.6577 5.53545 7.67869 6.20525 6.86057 7.04792C6.04245 7.89058 5.40187 8.88896 4.97682 9.98383C4.55177 11.0787 4.3509 12.2478 4.38614 13.4217C4.48044 15.6277 5.39103 17.72 6.94113 19.2924C8.49124 20.8648 10.5703 21.8051 12.7747 21.9309C15.0892 22.0353 17.351 21.2199 19.0664 19.6627C20.7818 18.1055 21.8115 15.9329 21.9308 13.6191V12.2813H14.255V14.0139H20.0777L19.6281 15.4394C19.2732 16.6494 18.5782 17.7319 17.6256 18.5582C16.673 19.3844 15.5031 19.9195 14.255 20.0997C13.29 20.2397 12.3067 20.1826 11.3643 19.932C10.422 19.6813 9.54022 19.2422 8.77231 18.6413C8.01567 18.0477 7.39064 17.3034 6.93684 16.4555C6.48304 15.6076 6.21038 14.6747 6.13614 13.7159C6.06191 12.7571 6.18773 11.7933 6.50562 10.8857C6.82352 9.97805 7.32654 9.14639 7.9828 8.44343C8.90062 7.45419 10.0797 6.7449 11.3836 6.39757C12.6876 6.05023 14.0633 6.07902 15.3516 6.48062L16.1959 4.91256C15.223 4.55693 14.1943 4.37866 13.1585 4.38622Z" fill="#231F20"/>
</svg>
