<svg width="62" height="62" viewBox="0 0 62 62" fill="none" xmlns="http://www.w3.org/2000/svg">
<path d="M56.8334 56.8333L51.6668 51.6666M29.7084 54.25C32.9313 54.25 36.1226 53.6152 39.1001 52.3818C42.0776 51.1485 44.7831 49.3408 47.062 47.0619C49.3409 44.783 51.1486 42.0775 52.382 39.1C53.6153 36.1225 54.2501 32.9312 54.2501 29.7083C54.2501 26.4854 53.6153 23.2941 52.382 20.3166C51.1486 17.3391 49.3409 14.6336 47.062 12.3547C44.7831 10.0758 42.0776 8.26808 39.1001 7.03475C36.1226 5.80141 32.9313 5.16663 29.7084 5.16663C23.1996 5.16663 16.9573 7.75226 12.3548 12.3547C7.75238 16.9572 5.16675 23.1994 5.16675 29.7083C5.16675 36.2171 7.75238 42.4594 12.3548 47.0619C16.9573 51.6643 23.1996 54.25 29.7084 54.25V54.25Z" stroke="black" stroke-width="1.5" stroke-linecap="round" stroke-linejoin="round"/>
</svg>
