<svg width="22" height="22" viewBox="0 0 22 22" fill="none" xmlns="http://www.w3.org/2000/svg">
<path d="M15.4549 19.5406C11.8286 19.5359 8.35218 18.0933 5.788 15.5291C3.22382 12.9649 1.78119 9.48847 1.77649 5.86217C1.77649 4.77856 2.20695 3.73933 2.97318 2.9731C3.73941 2.20687 4.77864 1.77641 5.86225 1.77641C6.09171 1.77466 6.32079 1.79548 6.54618 1.83858C6.76406 1.87082 6.97826 1.92437 7.18569 1.99846C7.33157 2.04965 7.46157 2.13803 7.56283 2.25486C7.66408 2.3717 7.73309 2.51294 7.76302 2.66462L8.97987 7.99388C9.01267 8.13853 9.00872 8.2891 8.96838 8.43184C8.92804 8.57457 8.8526 8.70494 8.74894 8.81103C8.63347 8.93538 8.62459 8.94426 7.53209 9.51271C8.40697 11.432 9.94198 12.9733 11.8577 13.8561C12.435 12.7547 12.4439 12.7458 12.5682 12.6303C12.6743 12.5267 12.8047 12.4512 12.9474 12.4109C13.0902 12.3705 13.2407 12.3666 13.3854 12.3994L18.7146 13.6162C18.8615 13.6503 18.9972 13.7212 19.1091 13.8222C19.221 13.9232 19.3053 14.051 19.3542 14.1936C19.4291 14.4044 19.4856 14.6214 19.5229 14.842C19.5587 15.0652 19.5765 15.2909 19.5762 15.517C19.5598 16.596 19.1173 17.6247 18.3451 18.3785C17.573 19.1323 16.534 19.5501 15.4549 19.5406Z" fill="#231F20"/>
</svg>
