<svg width="25" height="25" viewBox="0 0 25 25" fill="none" xmlns="http://www.w3.org/2000/svg">
<path d="M22.1885 2.99317C21.9449 3.00385 21.7079 3.07163 21.4941 3.15723C21.2825 3.24226 20.0644 3.76218 18.2656 4.53126C16.4668 5.30034 14.1285 6.30184 11.8105 7.29493C7.17467 9.2811 2.61913 11.2354 2.61913 11.2354L2.65234 11.2227C2.65234 11.2227 2.37739 11.3146 2.09863 11.5088C1.95925 11.6059 1.80929 11.7313 1.68652 11.9141C1.56374 12.0969 1.47398 12.3559 1.50781 12.6299C1.62662 13.5923 2.62402 13.8652 2.62402 13.8652L2.62792 13.8672L7.07909 15.3906C7.19258 15.7692 8.42915 19.8965 8.70117 20.7705C8.85139 21.2537 8.992 21.5325 9.13867 21.7227C9.21206 21.8178 9.28897 21.8915 9.37402 21.9453C9.40781 21.9667 9.44334 21.9828 9.47851 21.9971C9.47926 21.9974 9.47971 21.9967 9.48046 21.9971C9.48478 21.999 9.48885 21.9992 9.49316 22.001L9.48144 21.9981C9.48961 22.0014 9.49767 22.0069 9.50585 22.0098C9.52172 22.0153 9.53145 22.0151 9.55175 22.0195C10.0615 22.1975 10.4834 21.8672 10.4834 21.8672L10.501 21.8535L13.2353 19.3174L17.6728 22.7773L17.7285 22.8027C18.5052 23.1476 19.2077 22.9552 19.5967 22.6387C19.9857 22.3221 20.1387 21.9141 20.1387 21.9141L20.1553 21.8711L23.416 4.87598C23.4994 4.49576 23.5113 4.16711 23.4326 3.87012C23.3539 3.57314 23.1627 3.31497 22.9228 3.17188C22.6829 3.02879 22.432 2.98249 22.1885 2.99317ZM22.2148 4.00977C22.3137 4.00519 22.387 4.0165 22.4101 4.03028C22.4333 4.04406 22.4436 4.04225 22.4658 4.12598C22.488 4.20972 22.5 4.38609 22.4394 4.66212L22.4375 4.66797L19.1953 21.5645C19.1876 21.5815 19.1201 21.7378 18.9658 21.8633C18.8084 21.9913 18.6334 22.0913 18.1689 21.8965L13.3164 18.1123L13.1797 18.0049L13.1768 18.0078L11.7256 16.919L19.8809 7.32423C19.9435 7.25069 19.9835 7.16058 19.9961 7.06478C20.0086 6.96898 19.9931 6.87161 19.9515 6.78442C19.9099 6.69724 19.8439 6.62398 19.7615 6.57351C19.6791 6.52303 19.5839 6.4975 19.4873 6.50001C19.3929 6.50246 19.3012 6.53157 19.2226 6.58399L7.42187 14.4512L2.96386 12.9248C2.96386 12.9248 2.52118 12.6785 2.49999 12.5068C2.49882 12.4973 2.49359 12.5059 2.51659 12.4717C2.5396 12.4374 2.59742 12.3796 2.66991 12.3291C2.8149 12.2281 2.98046 12.167 2.98046 12.167L2.99706 12.1611L3.01366 12.1543C3.01366 12.1543 7.56944 10.1999 12.2051 8.21387C14.5229 7.22084 16.8608 6.22007 18.6592 5.45118C20.4571 4.68249 21.7562 4.12919 21.8662 4.08497C21.9914 4.03482 22.1159 4.01435 22.2148 4.00977ZM16.8066 9.39649L10.6221 16.6729L10.6191 16.6758C10.6095 16.6874 10.6004 16.6995 10.5918 16.7119C10.582 16.7255 10.5729 16.7395 10.5644 16.7539C10.5297 16.8129 10.5074 16.8784 10.499 16.9463C10.499 16.9476 10.499 16.9489 10.499 16.9502L9.69335 20.5732C9.67996 20.5341 9.67058 20.5198 9.65624 20.4736V20.4727C9.40035 19.6504 8.23367 15.7581 8.07226 15.2197L16.8066 9.39649ZM11.3203 17.8652L12.4316 18.6992L10.7988 20.2129L11.3203 17.8652Z" fill="black"/>
</svg>
